<svg width="40" height="12" viewBox="0 0 40 12" fill="none" xmlns="http://www.w3.org/2000/svg">
<g id="logo-inicial">
<path id="Subtra&#195;&#167;&#195;&#163;o 1" d="M6.82284 11.9318C6.03523 11.9333 5.25554 11.7758 4.53109 11.4691C3.83068 11.173 3.19502 10.7444 2.6596 10.2072C2.12129 9.67005 1.69281 9.0345 1.39784 8.33568C1.09088 7.61006 0.933571 6.83074 0.935193 6.04375C0.933581 5.25676 1.09089 4.47744 1.39784 3.75183C1.6928 3.05295 2.12128 2.41737 2.6596 1.88015C3.19503 1.34296 3.83068 0.914373 4.53109 0.618294C5.25554 0.311539 6.03523 0.154119 6.82284 0.155589C7.61044 0.154119 8.39013 0.311539 9.11458 0.618294C9.81499 0.914378 10.4506 1.34297 10.9861 1.88015C11.5244 2.41738 11.9528 3.05296 12.2478 3.75183C12.5548 4.47744 12.7121 5.25676 12.7105 6.04375C12.7121 6.83074 12.5548 7.61006 12.2478 8.33568C11.9528 9.0345 11.5244 9.67004 10.9861 10.2072C10.4506 10.7444 9.81499 11.173 9.11458 11.4691C8.39013 11.7758 7.61044 11.9333 6.82284 11.9318ZM4.57822 2.78532C4.50679 2.78542 4.43609 2.79966 4.37027 2.82721C4.30445 2.85476 4.24483 2.89506 4.19489 2.94576L3.9109 3.23173L3.91873 3.23951C3.82087 3.36517 3.74201 3.50433 3.68462 3.65259C3.63229 3.78758 3.59729 3.92856 3.58043 4.07223C3.44751 5.17635 3.95144 6.18531 5.31987 7.55492C5.92309 8.18639 6.64927 8.68963 7.45433 9.03411C7.84238 9.1996 8.25848 9.29072 8.68065 9.30268C8.74531 9.30268 8.78645 9.29922 8.801 9.29762C8.94493 9.28045 9.08606 9.24499 9.22089 9.19209C9.36875 9.13471 9.50735 9.05617 9.63231 8.95895L9.63853 8.96438L9.92636 8.68236C10.026 8.58507 10.0833 8.45283 10.0858 8.31409C10.0883 8.17534 10.0359 8.04115 9.93979 7.94036L8.93193 6.93139C8.885 6.88471 8.82918 6.84777 8.76773 6.8227C8.70627 6.79763 8.64041 6.78495 8.57397 6.78539C8.50259 6.78549 8.43196 6.79974 8.3662 6.82729C8.30044 6.85484 8.24089 6.89514 8.19102 6.94583L7.68322 7.45408L7.61609 7.41705L7.58302 7.39866C7.13355 7.16643 6.72183 6.86841 6.36168 6.5146C6.00748 6.15266 5.70945 5.74046 5.4774 5.2915L5.47666 5.29027L5.47355 5.28459L5.47242 5.28261C5.45502 5.25102 5.43849 5.2209 5.42208 5.19239L5.76288 4.85188L5.93022 4.6839C6.0301 4.58681 6.08751 4.45463 6.09004 4.3159C6.09258 4.17716 6.04004 4.043 5.94378 3.94239L4.93604 2.93342C4.88935 2.88631 4.83364 2.84894 4.77219 2.82351C4.71074 2.79807 4.6448 2.78509 4.57822 2.78532Z" fill="#0000CC"/>
<path id="Caminho 8" d="M14.3132 2.95947L15.6594 7.57792L17.0882 2.95947H18.3178L16.3208 9.12797H14.9815L13.0843 2.95947H14.3132Z" fill="#0000CC"/>
<path id="Ret&#195;&#162;ngulo 4" d="M20.1867 2.95947H18.8784V9.12797H20.1867V2.95947Z" fill="#0000CC"/>
<path id="Caminho 9" d="M20.7475 4.04656H22.3852V9.12797H23.546V4.04656H25.2333V2.95947H20.7475V4.04656Z" fill="#0000CC"/>
<path id="Caminho 10" d="M25.607 4.04656H27.2449V9.12797H28.4058V4.04656H30.0928V2.95947H25.607V4.04656Z" fill="#0000CC"/>
<path id="Caminho 11" d="M30.6536 4.23497V7.89311C30.6536 9.02556 31.4997 9.14968 32.0323 9.12533C32.0323 9.12533 34.1161 9.0473 34.5783 8.98269V8.02022H32.3019C32.0652 8.02022 31.7997 8.02855 31.796 7.58397V6.6261L34.2074 6.5467V5.58126L31.796 5.49279V4.5348C31.796 4.30828 31.796 4.06512 32.2204 4.06512H34.5787V3.09408C34.0536 3.02027 31.9511 2.95989 31.9511 2.95989C31.3879 2.94845 30.6539 3.16938 30.6539 4.23485" fill="#0000CC"/>
<path id="Caminho 12" d="M36.993 8.04144C36.7537 8.04144 36.4814 8.04981 36.4814 7.60317V2.95947H35.3264V7.9271C35.3264 8.87943 35.9267 9.12797 36.5849 9.12797H39.0645V8.04144H36.993Z" fill="#0000CC"/>
</g>
</svg>
