<svg width="150" height="30" viewBox="0 0 150 30" fill="none" xmlns="http://www.w3.org/2000/svg">
<g id="Logo OmniGo!">
<g id="Group">
<path id="Vector" d="M115.899 15.3241H120.47L117.687 21.927C115.246 23.2208 112.341 23.9104 110.046 23.9104C105.006 23.9104 102.742 20.5418 104.762 15.7452C106.782 10.9486 111.883 7.58002 117.034 7.58002C120.116 7.58002 122.136 8.64796 122.904 10.5947L118.285 13.5605C117.784 12.4254 116.887 11.8457 115.508 11.8457C113.189 11.8457 111.084 13.3408 110.071 15.7513C109.082 18.0947 109.9 19.6569 112.152 19.6569C112.799 19.6569 113.47 19.5471 114.233 19.2786L115.899 15.3241Z" fill="white"/>
<path id="Vector_2" d="M121.922 15.7513C123.918 11.0218 129.086 7.58612 134.176 7.58612C139.265 7.58612 141.542 11.0218 139.546 15.7513C137.557 20.4807 132.382 23.9165 127.298 23.9165C122.209 23.9165 119.933 20.4807 121.922 15.7513ZM134.237 15.7513C135.262 13.3225 134.322 11.8457 132.382 11.8457C130.441 11.8457 128.256 13.3164 127.231 15.7513C126.206 18.1801 127.146 19.6569 129.086 19.6569C131.033 19.6569 133.212 18.1801 134.237 15.7513Z" fill="white"/>
<g id="Group_2">
<path id="Vector_3" d="M39.715 15.7513C41.7105 11.0218 46.8794 7.58612 51.9689 7.58612C57.0584 7.58612 59.3346 11.0218 57.3391 15.7513C55.3435 20.4807 50.1747 23.9165 45.0913 23.9165C40.0018 23.9165 37.7256 20.4807 39.715 15.7513ZM52.0299 15.7513C53.0551 13.3225 52.1153 11.8457 50.1747 11.8457C48.2341 11.8457 46.0494 13.3164 45.0242 15.7513C43.999 18.1801 44.9388 19.6569 46.8794 19.6569C48.8261 19.6569 51.0047 18.1801 52.0299 15.7513Z" fill="white"/>
<path id="Vector_4" d="M79.7596 16.5995L76.8304 23.5564H71.7897L74.3589 17.4661C74.9996 15.9465 74.6823 15.3668 73.8829 15.3668C72.9919 15.3668 72.046 15.971 71.3564 17.6003L68.8483 23.5564H63.8076L66.3768 17.4661C67.0175 15.9465 66.749 15.3668 65.9008 15.3668C65.0098 15.3668 64.0639 15.971 63.3743 17.6003L60.8662 23.5564H55.8255L60.9699 11.3513H65.7665L65.2844 12.4864C66.5842 11.571 67.9756 11.1255 69.3182 11.1255C70.9048 11.1255 72.0399 11.7053 72.3511 12.9746C73.834 11.7907 75.5427 11.1255 77.2148 11.1255C79.9671 11.1317 81.3768 12.761 79.7596 16.5995Z" fill="white"/>
<path id="Vector_5" d="M95.4188 16.5996L92.4835 23.5626H87.4489L90.0181 17.4722C90.6589 15.9527 90.3232 15.373 89.4079 15.373C88.3826 15.373 87.2415 16.0198 86.4786 17.8262L84.062 23.5626H79.0214L84.1658 11.3575H88.9624L88.4559 12.5597C89.8167 11.6016 91.3118 11.1317 92.7398 11.1317C95.5409 11.1317 97.036 12.7611 95.4188 16.5996Z" fill="white"/>
<path id="Vector_6" d="M100.801 7.8058C101.412 6.3534 103.065 5.24274 104.914 5.24274C106.763 5.24274 107.514 6.26796 106.904 7.72036C106.257 9.2582 104.603 10.375 102.754 10.375C100.899 10.375 100.185 9.2582 100.801 7.8058ZM99.8187 11.3575H104.859L99.715 23.5625H94.6743L99.8187 11.3575Z" fill="white"/>
<path id="Vector_7" d="M143.977 7.94006H150L144.935 17.5759H140.919L143.977 7.94006ZM138.496 21.1032C139.125 19.6081 140.809 18.473 142.549 18.473C144.288 18.473 145.014 19.6081 144.385 21.1032C143.763 22.5739 142.054 23.7822 140.315 23.7822C138.576 23.7822 137.874 22.58 138.496 21.1032Z" fill="white"/>
</g>
</g>
<g id="Group_3">
<path id="Vector_8" d="M36.6151 3.18009L27.4308 27.6329C26.9182 28.9937 25.301 29.5674 24.0439 28.8351L16.6903 24.5511L18.753 24.2216L22.2314 26.2537C22.6891 26.5222 23.2078 26.6565 23.7266 26.6565C24.0622 26.6565 24.3978 26.6016 24.7213 26.4856C25.5451 26.1927 26.1981 25.5519 26.5032 24.7342L33.1488 7.04298C33.5577 5.95673 33.3075 4.76064 32.4959 3.9246C31.6842 3.09465 30.4942 2.81394 29.3958 3.19229L6.20621 11.2354C5.09555 11.6199 4.33884 12.5841 4.22289 13.7497C4.10695 14.9152 4.66838 16.0137 5.6814 16.5995L8.53127 18.2594L8.40922 19.724L1.16553 15.5011C-0.567585 14.4881 -0.317381 11.9067 1.5805 11.2476L33.6431 0.13493C35.5288 -0.51804 37.3169 1.31272 36.6151 3.18009Z" fill="white"/>
<path id="Vector_9" d="M29.823 4.3884L6.62126 12.4315C5.2482 12.9075 5.06512 14.7749 6.32224 15.5072L9.8617 17.5698L9.29417 24.4535L19.0033 22.8973L22.8784 25.1553C23.7877 25.6862 24.9593 25.2712 25.3255 24.2826L31.9711 6.59141C32.4776 5.24886 31.1839 3.91851 29.823 4.3884Z" fill="white"/>
</g>
</g>
</svg>
