<svg width="16" height="17" viewBox="0 0 16 17" fill="none" xmlns="http://www.w3.org/2000/svg">
<g id="icon/phone" clip-path="url(#clip0_146_1275)">
<path id="Vector" d="M14.6666 11.4355V13.4355C14.6674 13.6212 14.6294 13.8049 14.555 13.9751C14.4806 14.1452 14.3715 14.2979 14.2347 14.4234C14.0979 14.5489 13.9364 14.6445 13.7605 14.704C13.5846 14.7635 13.3982 14.7855 13.2133 14.7688C11.1619 14.5459 9.19131 13.8449 7.45998 12.7222C5.84919 11.6986 4.48353 10.3329 3.45998 8.72217C2.33329 6.98297 1.63214 5.00283 1.41331 2.94217C1.39665 2.75781 1.41856 2.57201 1.47764 2.39658C1.53673 2.22116 1.63169 2.05996 1.75649 1.92325C1.88128 1.78654 2.03318 1.67731 2.2025 1.60252C2.37183 1.52772 2.55487 1.48901 2.73998 1.48883H4.73998C5.06351 1.48565 5.37717 1.60022 5.62248 1.81119C5.8678 2.02216 6.02803 2.31513 6.07331 2.6355C6.15772 3.27555 6.31428 3.90399 6.53998 4.50883C6.62967 4.74745 6.64908 5.00678 6.59591 5.25609C6.54274 5.5054 6.41922 5.73424 6.23998 5.9155L5.39331 6.76217C6.34235 8.4312 7.72428 9.81313 9.39331 10.7622L10.24 9.9155C10.4212 9.73626 10.6501 9.61273 10.8994 9.55956C11.1487 9.50639 11.408 9.52581 11.6466 9.6155C12.2515 9.8412 12.8799 9.99775 13.52 10.0822C13.8438 10.1279 14.1396 10.291 14.351 10.5405C14.5624 10.79 14.6748 11.1086 14.6666 11.4355Z" stroke="#1E293B" stroke-width="2" stroke-linecap="round" stroke-linejoin="round"/>
</g>
<defs>
<clipPath id="clip0_146_1275">
<rect width="16" height="16" fill="white" transform="translate(0 0.155518)"/>
</clipPath>
</defs>
</svg>
