<svg width="17" height="17" viewBox="0 0 17 17" fill="none" xmlns="http://www.w3.org/2000/svg">
<g id="icon/check-circle" clip-path="url(#clip0_140_770)">
<path id="Vector" d="M15.1667 8.04226V8.65559C15.1658 10.0932 14.7003 11.492 13.8395 12.6435C12.9788 13.7949 11.7688 14.6372 10.3902 15.0449C9.0116 15.4525 7.53815 15.4035 6.18963 14.9053C4.8411 14.4071 3.68975 13.4863 2.90729 12.2803C2.12482 11.0743 1.75317 9.64763 1.84776 8.21313C1.94235 6.77863 2.49812 5.41314 3.43217 4.32031C4.36621 3.22747 5.6285 2.46584 7.03077 2.14902C8.43304 1.8322 9.90016 1.97715 11.2133 2.56226" stroke="white" stroke-width="2" stroke-linecap="round" stroke-linejoin="round"/>
<path id="Vector_2" d="M15.1667 3.32227L8.5 9.9956L6.5 7.9956" stroke="white" stroke-width="2" stroke-linecap="round" stroke-linejoin="round"/>
</g>
<defs>
<clipPath id="clip0_140_770">
<rect width="16" height="16" fill="white" transform="translate(0.5 0.655579)"/>
</clipPath>
</defs>
</svg>
